<svg xmlns="http://www.w3.org/2000/svg" width="24.873" height="24.873" viewBox="0 0 24.873 24.873">
  <path id="Path_28" data-name="Path 28" d="M451.437,125a12.437,12.437,0,1,0,12.436,12.437A12.437,12.437,0,0,0,451.437,125Zm3.445,17.064a3.936,3.936,0,0,1-2.616,1.7v1.968h-1.658v-1.956a4.211,4.211,0,0,1-1.457-.555l-1.628-1.007.872-1.41,1.628,1.007a2.611,2.611,0,0,0,3.458-.63,1.471,1.471,0,0,0,.171-1.288,2.018,2.018,0,0,0-1.245-1.2l-2.53-.961a3.663,3.663,0,0,1-2.229-2.223,3.12,3.12,0,0,1,.344-2.7,3.939,3.939,0,0,1,2.616-1.7v-1.963h1.658V131.1a4.207,4.207,0,0,1,1.457.554l1.628,1.007-.872,1.41-1.628-1.007a2.612,2.612,0,0,0-3.458.63,1.471,1.471,0,0,0-.171,1.288,2.017,2.017,0,0,0,1.245,1.2l2.53.961a3.663,3.663,0,0,1,2.229,2.223A3.121,3.121,0,0,1,454.882,142.064Z" transform="translate(-439 -125)" fill="#d9a760"/>
</svg>
