<svg id="Group_939" data-name="Group 939" xmlns="http://www.w3.org/2000/svg" width="28.429" height="28.434" viewBox="0 0 28.429 28.434">
  <path id="Path_346" data-name="Path 346" d="M38.862-516.837a7.105,7.105,0,0,0-5.5,5.358c-.244.995-.261,1.578-.233,9.3.017,7.088.022,7.253.133,7.8a7.187,7.187,0,0,0,5.4,5.746,23.29,23.29,0,0,0,3.837.124c3.11.023,3.432.018,3.515-.071s.089-1.225.089-14.106c0-9.549-.017-14.047-.056-14.13-.056-.106-.15-.112-3.4-.106A33.9,33.9,0,0,0,38.862-516.837Zm5.026,14.13v11.928l-2.26-.029a11.047,11.047,0,0,1-2.721-.147,4.876,4.876,0,0,1-3.487-3.85c-.122-.595-.122-15.242-.006-15.825a4.991,4.991,0,0,1,2.877-3.644c.733-.312,1.072-.347,3.449-.353l2.149-.006Z" transform="translate(-33.121 516.931)" fill="#fff"/>
  <path id="Path_347" data-name="Path 347" d="M111.118-417.717a2.962,2.962,0,0,0-1.166.583,2.461,2.461,0,0,0-.827,2.066,1.747,1.747,0,0,0,.228.911,2.528,2.528,0,0,0,1.194,1.2,1.72,1.72,0,0,0,.95.222,2.02,2.02,0,0,0,.889-.1,2.507,2.507,0,0,0,1.727-2.777A2.551,2.551,0,0,0,111.118-417.717Z" transform="translate(-104.587 423.684)" fill="#fff"/>
  <path id="Path_348" data-name="Path 348" d="M315.039-516.959c-.022.018-.039,6.4-.039,14.182,0,12.84.005,14.141.089,14.177.15.059,4.459.035,4.992-.023a6.947,6.947,0,0,0,5.326-3.886,9.039,9.039,0,0,0,.417-1.03c.35-1.107.339-.812.339-9.273,0-6.753-.011-7.759-.089-8.189a7.106,7.106,0,0,0-5.653-5.911A20.491,20.491,0,0,0,317.5-517C316.166-517,315.055-516.982,315.039-516.959Zm5.931,12.823a2.787,2.787,0,0,1,1.866,1.837,3.254,3.254,0,0,1-.005,1.872,2.811,2.811,0,0,1-1.86,1.825,2.718,2.718,0,0,1-3.271-1.966,3.572,3.572,0,0,1,.022-1.66A2.677,2.677,0,0,1,320.97-504.136Z" transform="translate(-297.734 517)" fill="#fff"/>
</svg>
