<svg xmlns="http://www.w3.org/2000/svg" width="20.429" height="15.768" viewBox="0 0 20.429 15.768">
  <path id="PlayStation_logo" d="M21.247,13.068a3.824,3.824,0,0,1-1.377.863L12.6,16.543V14.617l5.352-1.907c.607-.218.7-.525.207-.687a3.61,3.61,0,0,0-1.993.1L12.6,13.382v-2l.206-.07a12.235,12.235,0,0,1,2.48-.525,10.579,10.579,0,0,1,4.617.55c1.57.5,1.747,1.227,1.348,1.731ZM13.29,9.788V4.861c0-.579-.107-1.111-.65-1.262-.416-.133-.674.253-.674.831V16.768L8.639,15.712V1a40.01,40.01,0,0,1,4.584,1.257C16.041,3.225,17,4.429,17,7.142c0,2.644-1.632,3.647-3.707,2.645ZM2.533,14.415c-1.612-.454-1.88-1.4-1.145-1.944a7.9,7.9,0,0,1,1.833-.882l4.771-1.7v1.934L4.559,13.056c-.606.218-.7.526-.207.687a3.62,3.62,0,0,0,1.993-.1l1.647-.6v1.73c-.1.019-.221.037-.329.055a10.8,10.8,0,0,1-5.131-.413Zm17.654.766a.78.78,0,1,1-.779.78A.78.78,0,0,1,20.188,15.181Zm-.648.78a.649.649,0,0,0,.648.648.648.648,0,0,0,.648-.648.648.648,0,1,0-1.3,0Zm.883-.42a.213.213,0,0,1,.129.213.238.238,0,0,1-.034.132.23.23,0,0,1-.065.063.191.191,0,0,1,.052.043.2.2,0,0,1,.031.115l0,.111a.284.284,0,0,0,.008.066.048.048,0,0,0,.025.038l.012.006v.051h-.168l-.006-.01a.152.152,0,0,1-.011-.034.527.527,0,0,1-.006-.068l-.007-.138a.1.1,0,0,0-.049-.093.241.241,0,0,0-.093-.013h-.236v.355h-.151v-.867h.4a.39.39,0,0,1,.164.03Zm-.416.349h.24a.207.207,0,0,0,.114-.027.114.114,0,0,0,.037-.1.1.1,0,0,0-.053-.1.192.192,0,0,0-.083-.015h-.255v.245Z" transform="translate(-1 -1)" fill="#fff" fill-rule="evenodd"/>
</svg>
