<svg xmlns="http://www.w3.org/2000/svg" viewBox="0 0 122.04 123.36"><defs><style>.cls-1{fill:#ffff;}</style></defs><title>Asset 1</title><g id="Layer_2" data-name="Layer 2"><g id="Layer_1-2" data-name="Layer 1"><path id="_Path_" data-name="&lt;Path&gt;" class="cls-1" d="M60.92,0C28.81,0,2.5,25,0,56.74L32.76,70.4a17.08,17.08,0,0,1,9.74-3l1,0L58,46.08v-.3A23.05,23.05,0,1,1,81.09,69h-.53L59.78,84c0,.27,0,.55,0,.82a17.29,17.29,0,0,1-34.27,3.44L2.11,78.49a61.23,61.23,0,0,0,58.81,44.87c33.76,0,61.13-27.62,61.13-61.68S94.67,0,60.92,0"/><path id="_Path_2" data-name="&lt;Path&gt;" class="cls-1" d="M38.31,93.59,30.8,90.46A13,13,0,1,0,47.48,72.69a12.83,12.83,0,0,0-9.57-.14l7.76,3.24A9.67,9.67,0,0,1,50.81,88.4a9.53,9.53,0,0,1-12.5,5.19"/><path id="_Compound_Path_" data-name="&lt;Compound Path&gt;" class="cls-1" d="M69.57,45.76A11.54,11.54,0,1,1,81.11,57.4,11.59,11.59,0,0,1,69.57,45.76m26.87,0a15.36,15.36,0,1,0-15.36,15.5,15.45,15.45,0,0,0,15.36-15.5"/></g></g></svg>