<svg xmlns="http://www.w3.org/2000/svg" width="20.907" height="20.918" viewBox="0 0 20.907 20.918">
  <path id="Xbox_one_logo" d="M10.411,21.875A10.432,10.432,0,0,1,5.77,20.228C4.6,19.463,4.331,19.148,4.331,18.52c0-1.262,1.387-3.472,3.761-5.992a19.028,19.028,0,0,1,3.429-3.063,33.343,33.343,0,0,1,4.733,4.617c1.869,2.291,2.727,4.168,2.291,5-.332.636-2.39,1.879-3.9,2.357a11.473,11.473,0,0,1-4.232.431ZM2.746,17.208a10.843,10.843,0,0,1-1.706-5.1,8.153,8.153,0,0,1,.178-2.55A10.434,10.434,0,0,1,3.76,4.4c.524-.544.571-.559,1.211-.343a8.865,8.865,0,0,1,2.889,2l.751.679-.411.5a32.457,32.457,0,0,0-4.665,7.7,4.979,4.979,0,0,0-.4,2.7c.119.314.01.2-.391-.416Zm17.119.254a5.076,5.076,0,0,0-.311-2.205A31.931,31.931,0,0,0,14.97,7.473l-.6-.751.647-.594a13.65,13.65,0,0,1,2.063-1.634A3.969,3.969,0,0,1,18.6,3.909c.189,0,.854.693,1.391,1.446A10.946,10.946,0,0,1,21.746,9.41a13.494,13.494,0,0,1,.032,3.939,12.59,12.59,0,0,1-.785,2.475,13.429,13.429,0,0,1-1.072,1.836c-.131.167-.131.167-.058-.193ZM10.584,3.552A13.037,13.037,0,0,0,7.61,2.5a5.426,5.426,0,0,0-.991-.056c-.616.031-.589,0,.4-.468a10.158,10.158,0,0,1,2.437-.812A12.551,12.551,0,0,1,13.5,1.161a11.274,11.274,0,0,1,3.159,1.176l.22.135-.5-.025A9.15,9.15,0,0,0,12.35,3.561a8.476,8.476,0,0,1-.912.408c-.03-.006-.415-.193-.855-.417Z" transform="translate(-1 -1)" fill="#107c10"/>
</svg>
