<svg xmlns="http://www.w3.org/2000/svg" width="1440" height="127.447" viewBox="0 0 1440 127.447"><g transform="translate(-2989 -8409.066)"><path d="M0,31.872l10.467,20.48c16,2.432,41.4-3.286,76.8,6.827C126.733,74.667,160,95.573,192,111.488c32,16.085,64,6.7,96-9.088s64-38.827,96-50.048c32-11.392,64-11.392,96-6.827,32,4.395,64,13.781,96,18.176,32,4.565,64,4.565,96-4.523C704,49.92,736,32,768,36.395c32,4.565,64,31.872,96,38.7s64-6.827,96-9.088c32-2.432,64,6.955,96,0,32-6.7,64-29.739,96-31.872s64,15.787,96,25.045c32,9.088,51,43.221,83,43.221s42.667,9.088,58.667,9.088L1417.4,121.6s-27.733-27.178-27.733-10.112c0,2.423,34.333,6.558,34.333,10.112,0,19.731,16,14.934,16,14.934H0Z" transform="translate(2989 8399.467)" fill="#292b2f"/><path d="M0,67.788,16,84.964c16,17.36,48,51.434,80,46.692,32-4.927,64-49.132,96-61.427,32-12.11,64,7.229,96,12.295s64-5.065,96-17.175c32-12.295,64-27.03,96-19.662s64,36.838,96,56.5c32,19.478,64,29.608,96,31.91s64-2.3,96-9.808c32-7.229,64-34.535,96-29.47s64,41.58,96,41.718c32-.138,64-19.478,96-26.983,32-7.229,64,26.845,96,14.735,32-12.295,64-71.235,96-68.794,32,2.625,64,36.7,96,56.5s64,24.4,80,27.03l16,2.44v29.47H0Z" transform="translate(2989 8365.355)" fill="#6d7bd4"/></g></svg>