<?xml version="1.0" standalone="no"?><svg xmlns="http://www.w3.org/2000/svg" viewBox="0 0 1440 320"><path fill="#1D1D1D" fill-opacity="1" d="M0,96L24,85.3C48,75,96,53,144,80C192,107,240,181,288,202.7C336,224,384,192,432,160C480,128,528,96,576,117.3C624,139,672,213,720,202.7C768,192,816,96,864,53.3C912,11,960,21,1008,64C1056,107,1104,181,1152,197.3C1200,213,1248,171,1296,149.3C1344,128,1392,128,1416,128L1440,128L1440,320L1416,320C1392,320,1344,320,1296,320C1248,320,1200,320,1152,320C1104,320,1056,320,1008,320C960,320,912,320,864,320C816,320,768,320,720,320C672,320,624,320,576,320C528,320,480,320,432,320C384,320,336,320,288,320C240,320,192,320,144,320C96,320,48,320,24,320L0,320Z"></path></svg>