<svg xmlns="http://www.w3.org/2000/svg" width="1087.066" height="102.669" viewBox="0 0 1087.066 102.669"><path d="M0,57.65l5.209,1.91c5.133,2.054,15.174,5.657,25.742,1.946C41.444,57.65,52.089,46.12,61.9,44.21,72.471,42.157,83.04,50.083,92.854,59.56c10.644,9.62,21.137,21.15,31.706,26.915,10.04,5.765,20.382,5.765,30.951,9.62,10.116,3.711,20.382,11.638,30.951,1.91,10.267-9.728,20.382-36.392,30.951-40.355,10.342-3.963,20.382,15.493,30.951,21.15,10.493,5.873,21.137-2.054,30.951,1.91,10.569,3.963,21.137,19.1,30.951,21.15,10.644,1.91,21.137-9.62,31.706-11.53,10.04-2.054,20.383,5.873,30.951-7.711,10.116-13.44,20.383-48.03,30.951-49.939,10.267-2.054,20.382,28.933,30.951,30.735,10.342,1.8,20.383-24.862,30.951-23.06,10.493,1.8,21.137,32.788,30.951,44.21C507.3,96.2,517.866,88.276,527.68,90.33c10.644,1.91,21.137,13.44,31.706,5.765,10.04-7.819,20.382-34.482,30.951-46.12,10.116-11.422,20.383-7.819,30.951-7.711,10.267-.108,20.383-3.711,30.951-1.91,10.342,1.8,20.383,9.728,30.951,23.06,10.493,13.332,21.137,32.788,30.951,36.5,10.569,3.855,21.137-7.675,30.951-24.97C755.738,57.65,766.231,34.59,776.8,24.97c10.04-9.476,20.383-5.873,30.951-1.91,10.116,3.963,20.383,7.567,30.951,7.675,10.267-.108,20.383-3.711,30.951,1.946C880,38.553,890.036,53.687,900.6,55.74c10.493,1.91,21.137-9.62,30.951-11.53,10.569-2.054,21.137,5.873,30.951,7.675,10.644,1.8,21.137-1.8,31.706-1.91,10.04.108,20.383,3.711,30.951,7.675,10.116,3.963,20.382,7.567,30.951,9.62a140.988,140.988,0,0,0,25.667,1.91h5.284V0H0Z" transform="translate(1087.066 102.669) rotate(180)" fill="#1D1D1D"/></svg>