<svg xmlns="http://www.w3.org/2000/svg" width="15.873" height="27.379" viewBox="0 0 15.873 27.379"><g transform="translate(-14.438 28.311) rotate(-90)"><path d="M3.149,14.938a1.587,1.587,0,0,0-1.125.471,1.632,1.632,0,0,0,0,2.276L13.553,29.34a1.61,1.61,0,0,0,1.125.471A1.563,1.563,0,0,0,15.8,29.34L27.318,17.7a1.624,1.624,0,0,0,.037-2.291,1.59,1.59,0,0,0-2.251,0h0L14.7,25.948,4.274,15.409a1.587,1.587,0,0,0-1.125-.471Z" transform="translate(0 0)" fill="#fff" stroke="#fff" stroke-linejoin="round" stroke-width="1"/></g></svg>