<svg xmlns="http://www.w3.org/2000/svg" width="19.403" height="19.404" viewBox="0 0 19.403 19.404"><path d="M9.7,0A9.7,9.7,0,1,1,0,9.7,9.7,9.7,0,0,1,9.7,0Z" fill="#fff" opacity="0.11"/><path d="M4.259,1.853c1.879,0,3.407,1.213,3.407,2.7,0,1.293-1.29,2.688-3.375,2.688a6.08,6.08,0,0,1-1.584-.239,4.279,4.279,0,0,1-1.28.585,3.7,3.7,0,0,0,.141-1.356A2.418,2.418,0,0,1,.852,4.557c0-1.491,1.529-2.7,3.407-2.7Zm0-.853C2.01,1,0,2.5,0,4.557a3.137,3.137,0,0,0,.726,2A5.565,5.565,0,0,1,.019,8.819a10.21,10.21,0,0,0,2.832-.9,6.054,6.054,0,0,0,1.44.179c2.514,0,4.227-1.72,4.227-3.541C8.518,2.491,6.495,1,4.259,1ZM9.172,5.759a3.931,3.931,0,0,1-.256.6,1.443,1.443,0,0,1,.2,2.285,2.469,2.469,0,0,0,.059.794A2.536,2.536,0,0,1,8.463,9.1,2.733,2.733,0,0,1,5.87,8.731a5.742,5.742,0,0,1-.741.155,3.1,3.1,0,0,0,3.227.894,6.71,6.71,0,0,0,1.854.59,3.662,3.662,0,0,1-.463-1.482,2.084,2.084,0,0,0-.574-3.13Zm-6.4-1.6a.456.456,0,1,0,.456.456A.456.456,0,0,0,2.768,4.157Zm1.491,0a.456.456,0,1,0,.456.456A.456.456,0,0,0,4.259,4.157Zm1.491,0a.456.456,0,1,0,.456.456A.456.456,0,0,0,5.75,4.157Z" transform="translate(4.591 4.017)" fill="#fff"/></svg>