<svg xmlns="http://www.w3.org/2000/svg" width="5.391" height="3.365" viewBox="0 0 5.391 3.365"><g transform="translate(0 0)"><path d="M134.9,288l2.482,2.933L139.865,288Z" transform="translate(-134.687 -287.791)" fill="#fff"/><g transform="translate(0)"><path d="M125.093,278.669l.839.99,1.337,1.579c.1.121.2.242.308.365a.215.215,0,0,0,.3,0l.839-.99,1.337-1.579c.1-.121.2-.242.308-.364a.219.219,0,0,0-.153-.369h-4.965a.216.216,0,0,0,0,.431h4.965c-.052-.123-.1-.246-.153-.369l-.839.99-1.337,1.579c-.1.121-.2.242-.308.364h.3l-.839-.99-1.337-1.579c-.1-.121-.2-.242-.308-.364a.217.217,0,0,0-.3,0A.224.224,0,0,0,125.093,278.669Z" transform="translate(-125.031 -278.3)" fill="#fff"/></g></g></svg>