<svg xmlns="http://www.w3.org/2000/svg" width="15.835" height="15.834" viewBox="0 0 15.835 15.834"><g transform="translate(-317 -770)"><path d="M7.917,0A7.917,7.917,0,1,1,0,7.917,7.917,7.917,0,0,1,7.917,0Z" transform="translate(317 769.999)" fill="#fff" opacity="0.11"/><path d="M4.4,6.752H1.811A4.1,4.1,0,0,1,1.4,6.179h3a1.144,1.144,0,0,1,2.216,0H7.722a.286.286,0,1,1,0,.572H6.613a1.144,1.144,0,0,1-2.216,0Zm.536-.286a.572.572,0,1,0,.571-.572A.571.571,0,0,0,4.934,6.466ZM1.483,4.178H.828c0-.029,0-.058,0-.087a4.135,4.135,0,0,1,.029-.485h.628a1.144,1.144,0,0,1,2.216,0H7.722a.286.286,0,1,1,0,.572H3.7a1.144,1.144,0,0,1-2.216,0Zm.536-.286a.572.572,0,1,0,.572-.572A.573.573,0,0,0,2.019,3.892ZM4.283,1.6H1.67A4.113,4.113,0,0,1,2.2,1.031H4.283a1.144,1.144,0,0,1,2.216,0H7.633A4.117,4.117,0,0,1,8,1.4a.287.287,0,0,1-.275.206H6.5a1.144,1.144,0,0,1-2.216,0Zm.536-.286A.572.572,0,1,0,5.391.746.573.573,0,0,0,4.819,1.318Z" transform="translate(320 773.826)" fill="#fff"/></g></svg>