<svg xmlns="http://www.w3.org/2000/svg" width="15.7" height="17.127" viewBox="0 0 15.7 17.127"><path d="M8.307,5.165c0-.006-.206-.012-.171-.056l.1-.061a.249.249,0,0,0,0-.217l.034-.089-.071.021s.1-.432.235-.237l-.057.066a1.018,1.018,0,0,1,.139.445c.082.043.21.051.063.125.076-.013-.4.2-.462.115C8.062,5.222,8.314,5.186,8.307,5.165ZM7.8,5.051c-.055.056,0,.091.059.067.081-.036.192-.034.2-.144l.052-.065-.072-.1c-.043-.009-.071.046-.1.068l-.047.012-.044.057,0,.031Zm5,6.542-.523-.861-.517-.846c-.521-.852-.991-1.624-1.4-2.352l-.05.048c-.268.111-.672-.363-.956-.379.137.021.013-.35.013-.374-.109-.135-.8.015-.983.039a1.835,1.835,0,0,0-.961.253c-.184.15-.187.393-.374.511-.121.076-.254.051-.358.149a2.354,2.354,0,0,0-.5.663c-.044.1.055.327.031.451A1.425,1.425,0,0,0,7.2,10.823c.223.028.455.149.682.081a2.53,2.53,0,0,1,.532-.191c.269-.018.157.378.526.27.179-.053.26.123.26.256-.06.279-.191.435.063.63a.869.869,0,0,1,.347.557c.019.13.14.353-.011.43-.106.054-.185.362-.183.463.022.118.26.343.333.443.1.143.028.311.113.473a3.7,3.7,0,0,1,.231.46c.079.231.684,0,.825,0,.48,0,.724-.674,1.061-.881.191-.118.137-.44.364-.605.211-.153.434-.245.454-.529.015-.245-.185-.758-.074-.966ZM7.582,6.055a1.99,1.99,0,0,1-.11.567c-.022.1.315.161.3.211,0-.006.458-.157.5-.2l.1-.231a1.289,1.289,0,0,1,.274-.14l.117-.2a3.356,3.356,0,0,1,.54-.072,1.775,1.775,0,0,1,.416.379l.029.023a11.02,11.02,0,0,1-.568-1.386l-.059.026a.836.836,0,0,0-.473.289,1.745,1.745,0,0,1-.522.235c.235.025.224.2.206.344-.049.34-.782.025-.751.154Zm7.781,3.6A6.528,6.528,0,0,1,4.125,13.792c-.141-.148-.247-.5-.014-.642l.236-.061c.185-.157-.173-.793-.031-.895.44-.315.231-.7-.039-1.02-.115-.136-.744-.785-.816-.669a1.46,1.46,0,0,0-.216-.776,3.329,3.329,0,0,1-.485-.771c-.036-.124-.036-.5-.109-.589-.029-.036-.255-.132-.248-.183A6.512,6.512,0,0,1,4.091,4.8l.586-.235c.368-.552.389-.123.719-.268.11,0,.236-.452.354-.524.206-.132.049-.132.011-.193a4.357,4.357,0,0,1,1.751-.669c.024.1-.891.577-.791.562-.233.031-.277.447-.234.446.116,0,.844-.552,1.182-.435S8.6,3.216,8.83,3.023L8.859,3A4.414,4.414,0,0,1,9.2,1.446L8.85,1.427a7.845,7.845,0,1,0,7.688,6.259C16.188,8.3,15.793,8.956,15.363,9.658ZM16.7,3.164c0,1.748-1.392,3.834-3.211,6.827C11.67,7,10.277,4.913,10.277,3.164a3.212,3.212,0,0,1,6.423,0Zm-1.962.047A1.249,1.249,0,1,0,13.489,4.46,1.249,1.249,0,0,0,14.737,3.211Z" transform="translate(-1 0.001)" fill="#eaebeb"/></svg>