<svg xmlns="http://www.w3.org/2000/svg" width="45.737" height="9.541" viewBox="0 0 45.737 9.541"><g transform="translate(-71.607 -45.592)"><path d="M4.836-5.88a2.043,2.043,0,0,0-1.62-.7A3.145,3.145,0,0,0,.264-3.2,3.116,3.116,0,0,0,3.192.132a1.88,1.88,0,0,0,1.62-.768c.324.468.648.756.876.756a.888.888,0,0,0,.924-.852v-5.04A.862.862,0,0,0,5.7-6.564C5.472-6.564,5.148-6.3,4.836-5.88Zm-1.4,1.008c.792,0,1.332.672,1.332,1.668,0,.972-.552,1.656-1.332,1.656-.756,0-1.32-.7-1.32-1.656C2.112-4.188,2.664-4.872,3.432-4.872ZM11.6-.3a1.064,1.064,0,0,0,.78.432.9.9,0,0,0,.924-.888.969.969,0,0,0-.24-.624L11.1-3.66l1.44-1.272a1.112,1.112,0,0,0,.372-.732.881.881,0,0,0-.876-.876,1.214,1.214,0,0,0-.78.408l-1.8,1.764v-4.1a.945.945,0,0,0-.936-.936.943.943,0,0,0-.924.936V-.816A.953.953,0,0,0,8.532.12a.943.943,0,0,0,.924-.936v-2.16Zm6.348-5.58a2.043,2.043,0,0,0-1.62-.7A3.145,3.145,0,0,0,13.38-3.2,3.116,3.116,0,0,0,16.308.132a1.88,1.88,0,0,0,1.62-.768c.324.468.648.756.876.756a.888.888,0,0,0,.924-.852v-5.04a.862.862,0,0,0-.912-.792C18.588-6.564,18.264-6.3,17.952-5.88Zm-1.4,1.008c.792,0,1.332.672,1.332,1.668,0,.972-.552,1.656-1.332,1.656-.756,0-1.32-.7-1.32-1.656C15.228-4.188,15.78-4.872,16.548-4.872Zm9.4-.888A2.045,2.045,0,0,0,25-6.42a2.408,2.408,0,0,0-.876-.156,2.441,2.441,0,0,0-1.428.456,1.931,1.931,0,0,0-.228.228c-.312-.408-.612-.66-.8-.66a.958.958,0,0,0-.948.948V-.828a.945.945,0,0,0,.936.936.932.932,0,0,0,.924-.924V-4.068a1,1,0,0,1,1.008-1,.992.992,0,0,1,.972,1.008v3.24A.913.913,0,0,0,25.44.12a.95.95,0,0,0,.96-.936v-3.24a.987.987,0,0,1,1.02-.972.963.963,0,0,1,.948.972v3.24A.937.937,0,0,0,29.3.12a.937.937,0,0,0,.936-.936V-4.344a2.177,2.177,0,0,0-2.3-2.244,2.737,2.737,0,0,0-1.656.54A4.08,4.08,0,0,0,25.944-5.76Zm9.624-.12a2.043,2.043,0,0,0-1.62-.7A3.145,3.145,0,0,0,31-3.2,3.116,3.116,0,0,0,33.924.132a1.88,1.88,0,0,0,1.62-.768c.324.468.648.756.876.756a.888.888,0,0,0,.924-.852v-5.04a.862.862,0,0,0-.912-.792C36.2-6.564,35.88-6.3,35.568-5.88Zm-1.4,1.008c.792,0,1.332.672,1.332,1.668,0,.972-.552,1.656-1.332,1.656-.756,0-1.32-.7-1.32-1.656C32.844-4.188,33.4-4.872,34.164-4.872Z" transform="translate(80 55)" fill="#dcdcdc"/><g transform="translate(-47.803 19.055)"><path d="M6.463,1.541A1,1,0,0,0,8.3.976V-6.27a1.013,1.013,0,0,0-1-1.03A1.032,1.032,0,0,0,6.275-6.27l.038,4.659L2.256-6.81a1.056,1.056,0,0,0-.829-.477A1.019,1.019,0,0,0,.41-6.245V.926A1.048,1.048,0,0,0,1.44,1.981a1,1,0,0,0,1-1L2.407-3.683Z" transform="translate(119 34)" fill="#dcdcdc"/><path d="M6.463,1.539A1,1,0,0,0,8.3.973c0-7.811-2.022-7.811-1.984-2.587l-4.056-5.2a1.056,1.056,0,0,0-.829-.477A1.019,1.019,0,0,0,.41-6.248V.923A1.048,1.048,0,0,0,1.44,1.978a1,1,0,0,0,1-1L2.407-3.686Z" transform="translate(119 34.003)" fill="#dcdcdc"/><path d="M6.357,1.454A1,1,0,0,0,8.19.889c0-7.811-2.022-7.811-1.984-2.587L2.15-6.9C1.9-7.211.919-6.287.825-5.205c0,7.749,1.513,6.647,1.513,6.094L2.3-3.77Z" transform="translate(119.106 34.087)" fill="#dcdcdc"/></g></g></svg>