<svg xmlns="http://www.w3.org/2000/svg" viewBox="0 0 362.84 127.17"><defs><style>.cls-1{fill:#fff;}</style></defs><title>Asset 6</title><g id="Layer_2" data-name="Layer 2"><g id="Layer_1-2" data-name="Layer 1"><path class="cls-1" d="M161,37.57c6.74,0,12.2,4.82,12.2,10.6v67.44c0,6.26-5.46,11.4-12.36,11.4a6.62,6.62,0,0,1-3.43-1.23,17.46,17.46,0,0,0-17.66-1.11c-3.51,1.89-7.15,2.5-12.3,2.5-22,0-39.18-19.59-39.18-44.64,0-25.37,17.34-45.12,39.5-45.12,4.95,0,8.53.58,12.12,2.34A17.29,17.29,0,0,0,157,39.07,7.7,7.7,0,0,1,161,37.57Zm-48,45c0,12.85,7.55,22.16,17.66,22.16,10.44,0,17.82-9.15,17.82-22.16,0-13.33-7.23-22.32-17.82-22.32C120.37,60.21,113,69.37,113,82.53Z"/><path class="cls-1" d="M243,12.94A12.81,12.81,0,0,1,254.28.07a12.48,12.48,0,0,1,13.65,12.46V114.81a12.4,12.4,0,0,1-12.52,12.36c-1.93,0-4.49-1.71-7.23-4.75l-9.28-.61c-5.06,4.23-9.23,5.36-16.57,5.36-21.84,0-39-19.91-39-45,0-25.21,17.18-44.64,39.5-44.64a37.82,37.82,0,0,1,4.44.23A14.27,14.27,0,0,0,243,23.53ZM207.88,82.53c0,12.85,7.55,22.16,17.66,22.16,10.44,0,18-9.15,18-21.84,0-13.33-7.39-22.48-17.82-22.48C215.59,60.37,207.88,69.85,207.88,82.53Z"/><path class="cls-1" d="M313.24,89.76a5.56,5.56,0,0,0-4.56,8.77l0,.06c3.05,4,9.47,7.06,16.22,7.06a34.38,34.38,0,0,0,16.22-4.5c5.62-3.21,7.55-3.85,9.79-3.85,5.78,0,10.6,4.34,10.6,10,0,10.12-18.62,19.91-38.21,19.91-26.65,0-45.28-18.47-45.28-44.32s18.63-45.6,42.87-45.6c22.8,0,41.91,19.27,41.91,42.39,0,7.39-2.89,10.12-10.76,10.12ZM311.92,74h18.72a5.57,5.57,0,0,0,5-8c-3-5.95-7.72-9-14.23-9-6.33,0-11.25,3-14.42,8.85A5.56,5.56,0,0,0,311.92,74Z"/><path class="cls-1" d="M81.27,104.12,68.18,89.7a12.53,12.53,0,0,1,2.28-18.85c8.21-5.6,12.9-15.38,12.93-26.46.06-19-13.14-32.82-32.7-35.59a53.57,53.57,0,0,0-7.17-.5L13.65,8.21A13.12,13.12,0,0,0,.29,21.65h0A11.48,11.48,0,0,0,11.77,33.17h1.3a26.26,26.26,0,0,0,16.1-5.78,20,20,0,1,1,.27,31.77,24.75,24.75,0,0,0-14.88-5h0A14.42,14.42,0,0,0,.14,68.55l0,14.74L0,111.89a13.4,13.4,0,0,0,13.29,13.37,12.78,12.78,0,0,0,12.88-12.8v-.34c0-11.69,14.71-16.88,22.09-7.82L61,119.95c2.73,3.38,6.73,5.48,10.26,5.49a13.13,13.13,0,0,0,13.37-13A12.18,12.18,0,0,0,81.27,104.12Z"/></g></g></svg>