<svg xmlns="http://www.w3.org/2000/svg" viewBox="0 0 367.7 127.17"><defs><style>.cls-1{fill:#ffff;}</style></defs><title>Asset 4</title><g id="Layer_2" data-name="Layer 2"><g id="Layer_1-2" data-name="Layer 1"><path class="cls-1" d="M165.85,37.57c6.74,0,12.2,4.82,12.2,10.6v67.44c0,6.26-5.46,11.4-12.36,11.4a6.62,6.62,0,0,1-3.43-1.23,17.46,17.46,0,0,0-17.66-1.11c-3.51,1.89-7.15,2.5-12.3,2.5-22,0-39.18-19.59-39.18-44.64,0-25.37,17.34-45.12,39.5-45.12,4.95,0,8.53.58,12.12,2.34a17.29,17.29,0,0,0,17.09-.68A7.7,7.7,0,0,1,165.85,37.57Zm-48,45c0,12.85,7.55,22.16,17.66,22.16,10.44,0,17.82-9.15,17.82-22.16,0-13.33-7.23-22.32-17.82-22.32C125.23,60.21,117.84,69.37,117.84,82.53Z"/><path class="cls-1" d="M247.91,11.37a10.66,10.66,0,0,1,5-9.08c10-6.19,19.91,1.15,19.91,10.23V114.81a12.4,12.4,0,0,1-12.52,12.36c-2.21,0-5.27-2.26-8.46-6.2a4.49,4.49,0,0,0-6.55-.48c-5.77,5.32-10,6.67-18.07,6.67-21.84,0-39-19.91-39-45,0-25.21,17.18-44.64,39.5-44.64a33.37,33.37,0,0,1,5.94.45,12.12,12.12,0,0,0,14.29-11.91ZM212.74,82.53c0,12.85,7.55,22.16,17.66,22.16,10.44,0,18-9.15,18-21.84,0-13.33-7.39-22.48-17.82-22.48C220.45,60.37,212.74,69.85,212.74,82.53Z"/><path class="cls-1" d="M318.1,89.76a5.56,5.56,0,0,0-4.56,8.77l0,.06c3.05,4,9.47,7.06,16.22,7.06a34.38,34.38,0,0,0,16.22-4.5c5.62-3.21,7.55-3.85,9.79-3.85,5.78,0,10.6,4.34,10.6,10,0,10.12-18.62,19.91-38.21,19.91-26.65,0-45.28-18.47-45.28-44.32s18.63-45.6,42.87-45.6c22.8,0,41.91,19.27,41.91,42.39,0,7.39-2.89,10.12-10.76,10.12ZM316.78,74H335.5a5.57,5.57,0,0,0,5-8c-3-5.95-7.72-9-14.23-9-6.33,0-11.25,3-14.42,8.85A5.56,5.56,0,0,0,316.78,74Z"/><path class="cls-1" d="M81.24,105.82,68.1,91.44a12.56,12.56,0,0,1,2.23-18.86c8.19-5.63,12.85-15.42,12.85-26.5,0-19-13.24-32.78-32.81-35.48a52.22,52.22,0,0,0-7.17-.48H13.32A13.1,13.1,0,0,0,0,23.6H0A13.32,13.32,0,0,0,13.15,36.91l3.41,0a13.46,13.46,0,0,0,10-4.49,21,21,0,1,1,.73,29.26,12.82,12.82,0,0,0-8.78-3.8l-5.07-.06A13.32,13.32,0,0,0,0,71.19v42.65a13.4,13.4,0,0,0,13.33,13.33,12.78,12.78,0,0,0,12.84-12.84V114a12.44,12.44,0,0,1,22.07-7.88L61,121.71c2.74,3.37,6.75,5.46,10.28,5.46a13.13,13.13,0,0,0,13.33-13A12.16,12.16,0,0,0,81.24,105.82Z"/></g></g></svg>