<svg xmlns="http://www.w3.org/2000/svg" width="17.199" height="16.117" viewBox="0 0 17.199 16.117"><g transform="translate(-5.913 -5.54)"><path d="M16.762,4.2H12.24a1.551,1.551,0,0,0-1.548,1.548V10.27a1.551,1.551,0,0,0,1.548,1.548h4.522A1.551,1.551,0,0,0,18.31,10.27V5.748A1.551,1.551,0,0,0,16.762,4.2Zm-.035,6.053H12.276V5.784h4.469v4.469ZM1.3,8.423a.563.563,0,0,1,0-.809L3.338,5.572a.685.685,0,0,1,1.056.106.718.718,0,0,1-.106.88l-.757.774H8.475a.686.686,0,1,1,0,1.372H3.531l.757.757a.7.7,0,0,1,.106.88.685.685,0,0,1-1.056.106Zm1.39,11.894H7.208a1.551,1.551,0,0,0,1.548-1.548V14.246A1.551,1.551,0,0,0,7.208,12.7H2.687a1.551,1.551,0,0,0-1.548,1.548v4.522A1.551,1.551,0,0,0,2.687,20.317Zm.035-6.053H7.191v4.469H2.722Zm15.43,1.83a.563.563,0,0,1,0,.809l-2.041,2.041a.685.685,0,0,1-1.056-.106.718.718,0,0,1,.106-.88l.757-.757H10.974a.686.686,0,1,1,0-1.372h4.944l-.757-.757a.7.7,0,0,1-.106-.88.685.685,0,0,1,1.056-.106Z" transform="translate(4.788 1.341)" fill="#fff"/></g></svg>