<svg xmlns="http://www.w3.org/2000/svg" viewBox="0 0 481 111.37"><defs><style>.cls-1{fill:#fff;}.cls-2{opacity:0.6;}</style></defs><title>Asset 10</title><g id="Layer_2" data-name="Layer 2"><g id="Layer_3" data-name="Layer 3"><path class="cls-1" d="M145.24,32.9c5.91,0,10.69,4.22,10.69,9.28v59.06c0,5.48-4.78,10-10.83,10a5.8,5.8,0,0,1-3-1.08,15.29,15.29,0,0,0-15.47-1c-3.07,1.65-6.26,2.19-10.77,2.19-19.26,0-34.31-17.15-34.31-39.09,0-22.22,15.19-39.51,34.59-39.51,4.33,0,7.47.51,10.61,2a15.14,15.14,0,0,0,15-.6A6.74,6.74,0,0,1,145.24,32.9Zm-42,39.37c0,11.25,6.61,19.4,15.47,19.4,9.14,0,15.61-8,15.61-19.4,0-11.67-6.33-19.55-15.61-19.55C109.67,52.73,103.2,60.75,103.2,72.28Z"/><path class="cls-1" d="M217.1,10a9.34,9.34,0,0,1,4.36-8c8.76-5.42,17.44,1,17.44,9v89.57a10.86,10.86,0,0,1-11,10.83c-1.94,0-4.62-2-7.41-5.43a3.93,3.93,0,0,0-5.74-.42c-5.06,4.66-8.77,5.84-15.82,5.84-19.12,0-34.17-17.44-34.17-39.37s15-39.09,34.59-39.09a29.22,29.22,0,0,1,5.2.4A10.61,10.61,0,0,0,217.1,22.87ZM186.3,72.28c0,11.25,6.61,19.4,15.47,19.4,9.14,0,15.75-8,15.75-19.12,0-11.67-6.47-19.69-15.61-19.69C193.05,52.87,186.3,61.17,186.3,72.28Z"/><path class="cls-1" d="M278.57,78.6a4.87,4.87,0,0,0-4,7.68l0,.05c2.67,3.52,8.3,6.19,14.2,6.19A30.1,30.1,0,0,0,303,88.59c4.92-2.81,6.61-3.37,8.58-3.37,5.06,0,9.28,3.8,9.28,8.72,0,8.86-16.31,17.44-33.47,17.44-23.34,0-39.65-16.17-39.65-38.81s16.31-39.93,37.54-39.93c20,0,36.7,16.87,36.7,37.12,0,6.47-2.53,8.86-9.42,8.86Zm-1.16-13.78h16.4a4.88,4.88,0,0,0,4.38-7c-2.61-5.21-6.76-7.86-12.46-7.86-5.54,0-9.85,2.67-12.63,7.75A4.87,4.87,0,0,0,277.41,64.82Z"/><path class="cls-1" d="M71.14,92.67,59.64,80.08a11,11,0,0,1,2-16.52c7.17-4.93,11.25-13.5,11.25-23.21,0-16.6-11.59-28.71-28.73-31.07a45.73,45.73,0,0,0-6.28-.42H11.66A11.48,11.48,0,0,0,0,20.67H0A11.66,11.66,0,0,0,11.51,32.33l3,0a11.79,11.79,0,0,0,8.8-3.93,18.4,18.4,0,1,1,.64,25.62,11.23,11.23,0,0,0-7.69-3.33l-4.44-.06A11.66,11.66,0,0,0,0,62.34V99.69a11.73,11.73,0,0,0,11.67,11.67,11.19,11.19,0,0,0,11.24-11.24v-.3a10.9,10.9,0,0,1,19.33-6.9l11.18,13.66c2.4,3,5.91,4.78,9,4.78A11.5,11.5,0,0,0,74.1,100,10.65,10.65,0,0,0,71.14,92.67Z"/><g class="cls-2"><path class="cls-1" d="M387.45,27.52q0,2.82-3.62,2.89h-3.54V24.55h3.35a4.82,4.82,0,0,1,2.89.69A2.7,2.7,0,0,1,387.45,27.52Z"/><path class="cls-1" d="M388,37a2.77,2.77,0,0,1-1,2.22,4,4,0,0,1-2.64.81h-4.1V33.79h4.38Q388,33.84,388,37Z"/><path class="cls-1" d="M458,9.68H373a23,23,0,0,0,0,46h85a23,23,0,0,0,0-46ZM390.62,42.15a9.64,9.64,0,0,1-6.09,1.75h-9V20.67h8.14c2.82,0,5,.54,6.41,1.62A5.55,5.55,0,0,1,392.24,27a5.3,5.3,0,0,1-.88,3,5.1,5.1,0,0,1-2.44,1.9,4.87,4.87,0,0,1,2.81,1.81,5.29,5.29,0,0,1,1,3.31A6.12,6.12,0,0,1,390.62,42.15Zm23.29,1.75H398.34V20.67h15.54v3.88H403.13v5.54h9.19v3.75h-9.19v6.22h10.78Zm22.61-19.35H429.4V43.9h-4.78V24.55h-7V20.67h18.92ZM454,43.9l-1.61-4.78H444l-1.59,4.78h-5.09L446,20.67h4.43l8.69,23.23Zm-8.71-8.66h5.8l-2.92-8.69Z"/></g></g></g></svg>