<svg xmlns="http://www.w3.org/2000/svg" width="42.465" height="42.465" viewBox="0 0 42.465 42.465"><path d="M45.814,25.542a5.25,5.25,0,0,0-2.9-4.663,4.276,4.276,0,0,0-4.97,1.076,21.008,21.008,0,0,0-12.274-4.412L27.739,6.35l6.822,1.614a3.379,3.379,0,0,0,3.006,3.2,3.278,3.278,0,0,0,3.282-2.835,3.691,3.691,0,0,0-1.969-4.094,3.025,3.025,0,0,0-3.9,1.542l-7.81-1.758a.9.9,0,0,0-.75.153,1.123,1.123,0,0,0-.43.708L23.626,17.327A21.052,21.052,0,0,0,11.193,21.74a4.271,4.271,0,0,0-5-1.009,5.278,5.278,0,0,0-2.84,4.744,5.323,5.323,0,0,0,2.711,4.839,11.581,11.581,0,0,0,0,1.578c0,8.035,8.32,14.564,18.586,14.564s18.586-6.529,18.586-14.564a11.582,11.582,0,0,0,0-1.578A5.348,5.348,0,0,0,45.814,25.542ZM13.935,29.13a3.405,3.405,0,0,1,3.188-3.587,3.405,3.405,0,0,1,3.188,3.587,3.405,3.405,0,0,1-3.188,3.587A3.405,3.405,0,0,1,13.935,29.13Zm18.522,9.865a11.333,11.333,0,0,1-7.874,2.762,11.333,11.333,0,0,1-7.874-2.762,1.06,1.06,0,0,1,.057-1.3.792.792,0,0,1,1.155-.064,9.633,9.633,0,0,0,6.631,2.26A9.642,9.642,0,0,0,31.214,37.7a.822.822,0,0,1,1.259.018,1.093,1.093,0,0,1-.016,1.417Zm-.574-6.134A3.405,3.405,0,0,1,28.7,29.273a3.405,3.405,0,0,1,3.188-3.587,3.405,3.405,0,0,1,3.188,3.587,3.848,3.848,0,0,1-.9,2.643A3.022,3.022,0,0,1,31.851,33Z" transform="translate(-3.35 -3.992)" fill="#fff"/></svg>