<svg xmlns="http://www.w3.org/2000/svg" width="27.52" height="27.52" viewBox="0 0 27.52 27.52"><g transform="translate(2823.833 -20405.008)"><g transform="translate(-2823.833 20405.008)"><circle cx="13.76" cy="13.76" r="13.76" fill="#ff4500"/><path d="M21.678,12.259a2.009,2.009,0,0,0-3.4-1.376,9.8,9.8,0,0,0-5.3-1.692L13.877,4.9l2.945.619A1.376,1.376,0,1,0,17,4.677L13.629,4a.427.427,0,0,0-.509.33L12.1,9.108A9.825,9.825,0,0,0,6.735,10.8,2.009,2.009,0,1,0,4.52,14.089a3.949,3.949,0,0,0,0,.605c0,3.082,3.591,5.587,8.022,5.587s8.022-2.5,8.022-5.587a3.948,3.948,0,0,0,0-.605,2.009,2.009,0,0,0,1.115-1.83ZM7.918,13.635a1.376,1.376,0,1,1,1.376,1.376A1.376,1.376,0,0,1,7.918,13.635Zm7.995,3.784a5.284,5.284,0,0,1-3.4,1.06,5.284,5.284,0,0,1-3.4-1.06.372.372,0,0,1,.523-.523,4.5,4.5,0,0,0,2.862.867,4.513,4.513,0,0,0,2.876-.839.384.384,0,0,1,.537.55Zm-.248-2.353a.656.656,0,1,1-.014.055Z" transform="translate(1.259 1.501)" fill="#fff"/></g></g></svg>