<svg xmlns="http://www.w3.org/2000/svg" width="18.529" height="18.529" viewBox="0 0 18.529 18.529"><g transform="translate(0 0)"><circle cx="9.264" cy="9.264" r="9.264" fill="#ff4500"/><path d="M15.69,9.558A1.353,1.353,0,0,0,13.4,8.632a6.6,6.6,0,0,0-3.567-1.14l.6-2.891,1.983.417a.926.926,0,1,0,.12-.565L10.271,4a.287.287,0,0,0-.343.222L9.242,7.437a6.615,6.615,0,0,0-3.613,1.14A1.353,1.353,0,1,0,4.137,10.79a2.659,2.659,0,0,0,0,.408c0,2.075,2.418,3.761,5.4,3.761s5.4-1.686,5.4-3.761a2.659,2.659,0,0,0,0-.408,1.353,1.353,0,0,0,.75-1.232Zm-9.264.926a.926.926,0,1,1,.926.926A.926.926,0,0,1,6.426,10.485Zm5.383,2.548a3.558,3.558,0,0,1-2.288.713,3.558,3.558,0,0,1-2.288-.713.25.25,0,0,1,.352-.352,3.029,3.029,0,0,0,1.927.584,3.039,3.039,0,0,0,1.936-.565.259.259,0,1,1,.361.371Zm-.167-1.584a.442.442,0,1,1-.009.037Z" transform="translate(-0.246 -0.294)" fill="#fff"/></g></svg>