<svg xmlns="http://www.w3.org/2000/svg" width="38.343" height="38.342" viewBox="0 0 38.343 38.342">
  <path id="iconmonstr-steam-4" d="M38.435,19.171A19.252,19.252,0,0,1,.355,23.106L8,26.306a5.046,5.046,0,0,0,9.993-.951l.011,0,5.777-4.288a6.538,6.538,0,1,0-6.484-6.66l-4.234,5.9a4.988,4.988,0,0,0-2.872.815L.092,16.89a19.244,19.244,0,0,1,38.343,2.281Zm-26.586,8.75L9.373,26.885A3.9,3.9,0,1,0,11.565,21.7l2.473,1.035a2.817,2.817,0,1,1-2.189,5.191Zm12-8.95a4.445,4.445,0,1,1,4.46-4.445A4.459,4.459,0,0,1,23.852,18.972Zm0-1.09a3.357,3.357,0,1,0-3.371-3.357A3.364,3.364,0,0,0,23.852,17.882Z" transform="translate(-0.092)" fill="#fff"/>
</svg>
