<svg xmlns="http://www.w3.org/2000/svg" width="15.168" height="12.992" viewBox="0 0 15.168 12.992"><g transform="translate(15.168 12.992) rotate(180)"><path d="M10.75,7.091,9.4,11.814A1.631,1.631,0,0,1,7.84,12.992H.542A.541.541,0,0,1,0,12.451V4.872a.54.54,0,0,1,.107-.323L3.028.63A1.639,1.639,0,0,1,5.959,1.638V4.331h2.71a2.166,2.166,0,0,1,2.082,2.76Z" transform="translate(4.334 0)" fill="#fff"/><path d="M2.709,0H.542A.542.542,0,0,0,0,.542V8.126a.542.542,0,0,0,.542.542H2.709a.542.542,0,0,0,.542-.542V.542A.542.542,0,0,0,2.709,0ZM1.625,7.313A.813.813,0,1,1,2.438,6.5.813.813,0,0,1,1.625,7.313Z" transform="translate(0 4.325)" fill="#fff"/></g></svg>