<svg xmlns="http://www.w3.org/2000/svg" width="73.592" height="89.945" viewBox="0 0 73.592 89.945"><g transform="translate(-13.204 -5.027)"><path d="M36.535,38.934a4.08,4.08,0,1,1-2.889-1.2A4.085,4.085,0,0,1,36.535,38.934Z" fill="#fff"/><path d="M36.535,71.7a4.181,4.181,0,0,1,1.2,2.889,3.992,3.992,0,0,1-1.2,2.889,4.08,4.08,0,0,1-5.778,0,3.992,3.992,0,0,1-1.2-2.889,4.181,4.181,0,0,1,1.2-2.889,4.08,4.08,0,0,1,5.778,0Z" fill="#fff"/><path d="M36.535,55.342a4.085,4.085,0,0,1,1.2,2.889,4.181,4.181,0,0,1-1.2,2.889,4.08,4.08,0,0,1-5.778,0,4.181,4.181,0,0,1-1.2-2.889,4.086,4.086,0,0,1,6.977-2.889Z" fill="#fff"/><path d="M66.354,54.143a4.088,4.088,0,0,1,0,8.176H46.348a4.088,4.088,0,0,1,0-8.176Z" fill="#fff"/><path d="M66.354,70.5a4.088,4.088,0,0,1,0,8.176H46.348a4.088,4.088,0,1,1,0-8.176Z" fill="#fff"/><path d="M86.8,20.509V79.491A15.472,15.472,0,0,1,71.314,94.973H28.686A15.472,15.472,0,0,1,13.2,79.491V20.509A15.472,15.472,0,0,1,28.686,5.027H71.315A15.471,15.471,0,0,1,86.8,20.509ZM78.619,79.491V20.509A7.306,7.306,0,0,0,71.314,13.2H28.686a7.306,7.306,0,0,0-7.305,7.305V79.491A7.306,7.306,0,0,0,28.686,86.8H71.315A7.305,7.305,0,0,0,78.619,79.491Z" fill="#fff"/><path d="M66.354,21.326a4.088,4.088,0,0,1,0,8.176H46.348a4.088,4.088,0,1,1,0-8.176Z" fill="#fff"/><path d="M66.354,37.735a4.088,4.088,0,0,1,0,8.176H46.348a4.088,4.088,0,0,1,0-8.176Z" fill="#fff"/><path d="M36.535,22.526a4.08,4.08,0,1,1-2.889-1.2A4.085,4.085,0,0,1,36.535,22.526Z" fill="#fff"/></g></svg>