<svg xmlns="http://www.w3.org/2000/svg" width="65.522" height="65.303" viewBox="0 0 65.522 65.303"><g transform="translate(-1729.241 -2327.052)"><g transform="translate(-49 -20)"><path d="M47.975,78.316H64.366a2.4,2.4,0,0,0,2.4-2.4V59.525a2.4,2.4,0,0,0-2.4-2.4H47.975a2.4,2.4,0,0,0-2.4,2.4V75.916A2.4,2.4,0,0,0,47.975,78.316Z" transform="translate(1777 2312.039)" fill="#fff"/><path d="M25.641,56.2H42.032a2.4,2.4,0,0,0,2.4-2.4V37.411a2.4,2.4,0,0,0-2.4-2.4H25.641a2.4,2.4,0,0,0-2.4,2.4V53.8A2.4,2.4,0,0,0,25.641,56.2Z" transform="translate(1777 2312.039)" fill="#fff"/><path d="M47.975,56.2H64.366a2.4,2.4,0,0,0,2.4-2.4V37.411a2.4,2.4,0,0,0-2.4-2.4H47.975a2.4,2.4,0,0,0-2.4,2.4V53.8A2.4,2.4,0,0,0,47.975,56.2Z" transform="translate(1777 2312.039)" fill="#fff"/></g><g transform="translate(3573.005 4739.407) rotate(180)"><path d="M47.975,78.316H64.366a2.4,2.4,0,0,0,2.4-2.4V59.525a2.4,2.4,0,0,0-2.4-2.4H47.975a2.4,2.4,0,0,0-2.4,2.4V75.916A2.4,2.4,0,0,0,47.975,78.316Z" transform="translate(1777 2312.039)" fill="#fff"/><path d="M25.641,56.2H42.032a2.4,2.4,0,0,0,2.4-2.4V37.411a2.4,2.4,0,0,0-2.4-2.4H25.641a2.4,2.4,0,0,0-2.4,2.4V53.8A2.4,2.4,0,0,0,25.641,56.2Z" transform="translate(1777 2312.039)" fill="#fff"/><path d="M47.975,56.2H64.366a2.4,2.4,0,0,0,2.4-2.4V37.411a2.4,2.4,0,0,0-2.4-2.4H47.975a2.4,2.4,0,0,0-2.4,2.4V53.8A2.4,2.4,0,0,0,47.975,56.2Z" transform="translate(1777 2312.039)" fill="#fff"/></g></g></svg>