<svg xmlns="http://www.w3.org/2000/svg" width="77.136" height="53.279" viewBox="0 0 77.136 53.279"><g transform="translate(-1509.001 -2937.021)"><path d="M-7379.618-13007.56h-4.233a5.12,5.12,0,0,1-4.912-3.835l-4.166-21.1a5.034,5.034,0,0,1-.068-.922,5.085,5.085,0,0,1,5.073-5.089l12.395,0a5.087,5.087,0,0,1,5.073,5.092,5.4,5.4,0,0,1-.088.921l-4.146,21.1A5.124,5.124,0,0,1-7379.618-13007.56Zm-8.261-23.67-2.738,2.743,4,4,2.848,2.848,10.966-10.966-2.741-2.737-8.113,8.114a.152.152,0,0,1-.108.046.147.147,0,0,1-.108-.046Zm6.144-9.5a5.844,5.844,0,0,1-5.62-5.625,5.635,5.635,0,0,1,1.706-3.92,5.638,5.638,0,0,1,3.916-1.71,5.628,5.628,0,0,1,3.921,1.711,5.629,5.629,0,0,1,1.705,3.918,5.853,5.853,0,0,1-5.624,5.583Z" transform="translate(8902 15997.86)" fill="#fff"/><path d="M-7379.618-13007.56h-4.233a5.12,5.12,0,0,1-4.912-3.835l-4.166-21.1a5.034,5.034,0,0,1-.068-.922,5.085,5.085,0,0,1,5.073-5.089l12.395,0a5.087,5.087,0,0,1,5.073,5.092,5.4,5.4,0,0,1-.088.921l-4.146,21.1A5.124,5.124,0,0,1-7379.618-13007.56Zm-8.261-23.67-2.738,2.743,4,4,2.848,2.848,10.966-10.966-2.741-2.737-8.113,8.114a.152.152,0,0,1-.108.046.147.147,0,0,1-.108-.046Zm6.144-9.5a5.844,5.844,0,0,1-5.62-5.625,5.635,5.635,0,0,1,1.706-3.92,5.638,5.638,0,0,1,3.916-1.71,5.628,5.628,0,0,1,3.921,1.711,5.629,5.629,0,0,1,1.705,3.918,5.853,5.853,0,0,1-5.624,5.583Z" transform="translate(8956.594 15997.86)" fill="#fff"/><g transform="translate(1533.984 2937.021)"><path d="M-7386.26-13038.478a7.01,7.01,0,0,1-6.744-6.745,6.751,6.751,0,0,1,2.053-4.7,6.75,6.75,0,0,1,4.7-2.055,6.76,6.76,0,0,1,4.71,2.056,6.743,6.743,0,0,1,2.04,4.7,7.015,7.015,0,0,1-6.757,6.747Zm-.258-5.8a.936.936,0,0,1,.653.267,2.535,2.535,0,0,0,1.777.724,2.653,2.653,0,0,0,.763-.12l.251-.078a3.539,3.539,0,0,0,2.264-2.162l.059-.16a1.009,1.009,0,0,0-.158-.966.989.989,0,0,0-.774-.378,1.253,1.253,0,0,0-.135.011,37.71,37.71,0,0,1-4.775.306,35.229,35.229,0,0,1-4.62-.3c-.042,0-.084-.007-.127-.007a1,1,0,0,0-.779.377.988.988,0,0,0-.157.967l.055.154a3.555,3.555,0,0,0,2.264,2.162l.253.08a2.528,2.528,0,0,0,.763.123,2.538,2.538,0,0,0,1.771-.727.938.938,0,0,1,.659-.269Zm2.255-.338c-.515,0-.892-.162-.935-.4-.055-.328.482-.7,1.207-.827a2.586,2.586,0,0,1,.482-.045c.517,0,.892.163.934.405a.355.355,0,0,1-.072.264,1.863,1.863,0,0,1-1.135.562,2.641,2.641,0,0,1-.474.021Zm-4.509,0a2.67,2.67,0,0,1-.483-.041,2.389,2.389,0,0,1-.9-.343c-.229-.155-.338-.329-.31-.483.041-.241.417-.4.934-.4a2.88,2.88,0,0,1,.483.044c.725.13,1.264.5,1.207.826-.041.255-.415.375-.935.375Z" transform="translate(7399.872 13051.979)" fill="#fff"/><path d="M33.385,39.38a6.233,6.233,0,0,0-6,7.209l5.019,25.325a6.159,6.159,0,0,0,5.883,4.605h5.058a6.159,6.159,0,0,0,5.888-4.605l4.982-25.325a6.166,6.166,0,0,0,.114-1.094,6.1,6.1,0,0,0-6.075-6.115H33.389m2.831,4.341,4.605,4.605,4.605-4.605,3.245,3.246L44.07,51.572l4.605,4.642-3.246,3.246-4.6-4.605L36.22,59.461l-3.284-3.246,4.605-4.642-4.605-4.605,3.284-3.246" transform="translate(-27.309 -23.245)" fill="#fff"/></g></g></svg>